<svg width="101" height="27" viewBox="0 0 101 27" fill="none" xmlns="http://www.w3.org/2000/svg">
<path d="M9.31226 26.3484C6.59484 26.3484 4.4929 25.6516 3.00645 24.2581C1.52 22.8413 0.71871 20.9135 0.602581 18.4748L0.567742 16.9419L0.602581 15.409C0.71871 12.9935 1.53161 11.0774 3.04129 9.66064C4.55097 8.24387 6.64129 7.53548 9.31226 7.53548C11.9832 7.53548 14.0735 8.24387 15.5832 9.66064C17.0929 11.0774 17.9058 12.9935 18.0219 15.409C18.0452 15.6877 18.0568 16.1987 18.0568 16.9419C18.0568 17.6852 18.0452 18.1961 18.0219 18.4748C17.9058 20.9135 17.1045 22.8413 15.6181 24.2581C14.1316 25.6516 12.0297 26.3484 9.31226 26.3484ZM9.31226 22.8994C10.5432 22.8994 11.4955 22.5161 12.169 21.7497C12.8426 20.96 13.2142 19.8103 13.2839 18.3006C13.3071 18.0684 13.3187 17.6155 13.3187 16.9419C13.3187 16.2684 13.3071 15.8155 13.2839 15.5832C13.2142 14.0735 12.8426 12.9355 12.169 12.169C11.4955 11.3794 10.5432 10.9845 9.31226 10.9845C8.08129 10.9845 7.12903 11.3794 6.45548 12.169C5.78194 12.9355 5.41032 14.0735 5.34065 15.5832L5.30581 16.9419L5.34065 18.3006C5.41032 19.8103 5.78194 20.96 6.45548 21.7497C7.12903 22.5161 8.08129 22.8994 9.31226 22.8994ZM22.7529 26C22.5207 26 22.3232 25.9187 22.1607 25.7561C21.9981 25.5935 21.9168 25.3961 21.9168 25.1639V8.72C21.9168 8.48774 21.9981 8.29032 22.1607 8.12774C22.3232 7.96516 22.5207 7.88387 22.7529 7.88387H25.6097C25.842 7.88387 26.0394 7.96516 26.202 8.12774C26.3645 8.29032 26.4458 8.48774 26.4458 8.72V10.1484C27.8161 8.40645 29.7555 7.53548 32.2639 7.53548C34.4007 7.53548 36.0961 8.24387 37.3503 9.66064C38.6045 11.0542 39.2316 12.9587 39.2316 15.3742V25.1639C39.2316 25.3961 39.1503 25.5935 38.9878 25.7561C38.8484 25.9187 38.651 26 38.3955 26H35.3297C35.0974 26 34.9 25.9187 34.7374 25.7561C34.5749 25.5935 34.4936 25.3961 34.4936 25.1639V15.5832C34.4936 14.2129 34.1568 13.1561 33.4832 12.4129C32.8329 11.6465 31.8807 11.2632 30.6265 11.2632C29.3955 11.2632 28.42 11.6465 27.7 12.4129C27.0032 13.1794 26.6549 14.2361 26.6549 15.5832V25.1639C26.6549 25.3961 26.5736 25.5935 26.411 25.7561C26.2716 25.9187 26.0742 26 25.8187 26H22.7529ZM44.5279 26C44.2957 26 44.0983 25.9187 43.9357 25.7561C43.7731 25.5935 43.6918 25.3961 43.6918 25.1639V2.10064C43.6918 1.84516 43.7731 1.64774 43.9357 1.50839C44.0983 1.3458 44.2957 1.26451 44.5279 1.26451H47.4195C47.675 1.26451 47.8725 1.3458 48.0118 1.50839C48.1744 1.64774 48.2557 1.84516 48.2557 2.10064V25.1639C48.2557 25.3961 48.1744 25.5935 48.0118 25.7561C47.8725 25.9187 47.675 26 47.4195 26H44.5279ZM53.5738 4.88774C53.3415 4.88774 53.1441 4.80645 52.9815 4.64387C52.8189 4.48129 52.7376 4.28387 52.7376 4.05161V1.54322C52.7376 1.31097 52.8189 1.11355 52.9815 0.950966C53.1441 0.788386 53.3415 0.707096 53.5738 0.707096H56.7441C56.9763 0.707096 57.1738 0.788386 57.3363 0.950966C57.5221 1.11355 57.615 1.31097 57.615 1.54322V4.05161C57.615 4.28387 57.5338 4.48129 57.3712 4.64387C57.2086 4.80645 56.9996 4.88774 56.7441 4.88774H53.5738ZM53.7131 26C53.4808 26 53.2834 25.9187 53.1208 25.7561C52.9583 25.5935 52.877 25.3961 52.877 25.1639V8.72C52.877 8.48774 52.9583 8.29032 53.1208 8.12774C53.2834 7.96516 53.4808 7.88387 53.7131 7.88387H56.6047C56.8602 7.88387 57.0576 7.96516 57.197 8.12774C57.3596 8.2671 57.4408 8.46451 57.4408 8.72V25.1639C57.4408 25.3961 57.3596 25.5935 57.197 25.7561C57.0576 25.9187 56.8602 26 56.6047 26H53.7131ZM62.8991 26C62.6668 26 62.4694 25.9187 62.3068 25.7561C62.1443 25.5935 62.063 25.3961 62.063 25.1639V8.72C62.063 8.48774 62.1443 8.29032 62.3068 8.12774C62.4694 7.96516 62.6668 7.88387 62.8991 7.88387H65.7559C65.9881 7.88387 66.1855 7.96516 66.3481 8.12774C66.5107 8.29032 66.592 8.48774 66.592 8.72V10.1484C67.9623 8.40645 69.9017 7.53548 72.4101 7.53548C74.5468 7.53548 76.2423 8.24387 77.4965 9.66064C78.7507 11.0542 79.3778 12.9587 79.3778 15.3742V25.1639C79.3778 25.3961 79.2965 25.5935 79.1339 25.7561C78.9946 25.9187 78.7972 26 78.5417 26H75.4759C75.2436 26 75.0462 25.9187 74.8836 25.7561C74.721 25.5935 74.6397 25.3961 74.6397 25.1639V15.5832C74.6397 14.2129 74.303 13.1561 73.6294 12.4129C72.9791 11.6465 72.0268 11.2632 70.7726 11.2632C69.5417 11.2632 68.5662 11.6465 67.8462 12.4129C67.1494 13.1794 66.801 14.2361 66.801 15.5832V25.1639C66.801 25.3961 66.7197 25.5935 66.5572 25.7561C66.4178 25.9187 66.2204 26 65.9649 26H62.8991ZM91.607 26.3484C89.0289 26.3484 86.9735 25.6052 85.4406 24.1187C83.9309 22.609 83.1296 20.4955 83.0367 17.7781L83.0018 16.9071L83.0367 16.0361C83.1528 13.3884 83.9657 11.3097 85.4754 9.8C87.0083 8.29032 89.0522 7.53548 91.607 7.53548C94.3477 7.53548 96.4612 8.37161 97.9477 10.0439C99.4573 11.7161 100.212 13.9458 100.212 16.7329V17.4645C100.212 17.6968 100.131 17.8942 99.9683 18.0568C99.8057 18.2194 99.5967 18.3006 99.3412 18.3006H87.7748V18.5794C87.8212 19.8568 88.1696 20.9368 88.8199 21.8194C89.4935 22.6787 90.4109 23.1084 91.5722 23.1084C92.9425 23.1084 94.0457 22.5742 94.8818 21.5058C95.0909 21.2503 95.2535 21.0877 95.3696 21.0181C95.5089 20.9484 95.7064 20.9135 95.9618 20.9135H98.958C99.167 20.9135 99.3412 20.9832 99.4806 21.1226C99.6431 21.2387 99.7244 21.3897 99.7244 21.5755C99.7244 22.1329 99.3877 22.7948 98.7141 23.5613C98.0638 24.3045 97.1231 24.9548 95.8922 25.5123C94.6612 26.0697 93.2328 26.3484 91.607 26.3484ZM95.4741 15.3742V15.2697C95.4741 13.8994 95.1257 12.7961 94.4289 11.96C93.7554 11.1239 92.8148 10.7058 91.607 10.7058C90.3993 10.7058 89.4586 11.1239 88.7851 11.96C88.1115 12.7961 87.7748 13.8994 87.7748 15.2697V15.3742H95.4741Z" fill="#0D444D"/>
</svg>
