<svg width="20" height="25" viewBox="0 0 20 25" fill="none" xmlns="http://www.w3.org/2000/svg">
<path d="M1.19484 24.8064C0.939355 24.8064 0.730323 24.7252 0.567742 24.5626C0.428387 24.4 0.35871 24.191 0.35871 23.9355V21.4968C0.35871 21.1019 0.44 20.8 0.602581 20.591C0.765161 20.3587 0.858065 20.231 0.88129 20.2077L13.0052 4.53032H1.54323C1.31097 4.53032 1.11355 4.44903 0.950968 4.28645C0.788387 4.12387 0.707097 3.92645 0.707097 3.69419V1.29032C0.707097 1.03483 0.776774 0.825803 0.916129 0.663223C1.07871 0.500641 1.28774 0.419351 1.54323 0.419351H18.1961C18.4516 0.419351 18.6606 0.500641 18.8232 0.663223C18.9858 0.825803 19.0671 1.03483 19.0671 1.29032V3.69419C19.0671 4.11226 18.9161 4.51871 18.6142 4.91354L6.73419 20.6606H18.5794C18.8348 20.6606 19.0439 20.7419 19.2065 20.9045C19.369 21.0671 19.4503 21.2761 19.4503 21.5316V23.9703C19.4503 24.2258 19.369 24.4348 19.2065 24.5974C19.0439 24.7368 18.8348 24.8064 18.5794 24.8064H1.19484Z" fill="#0D444D"/>
</svg>
